<svg width="130" height="130" viewBox="0 0 130 130" fill="none" xmlns="http://www.w3.org/2000/svg">
<path d="M65.9061 0.00603915C29.3533 -0.487664 -0.487664 29.3533 0.00603915 65.9061C0.493493 100.962 29.0377 129.506 64.0938 129.994C100.653 130.494 130.488 100.653 129.988 64.1C129.506 29.0377 100.962 0.493493 65.9061 0.00603915ZM105.409 102.262C105.284 102.397 105.132 102.502 104.962 102.571C104.792 102.64 104.609 102.671 104.426 102.662C104.243 102.652 104.064 102.602 103.902 102.516C103.741 102.43 103.6 102.309 103.49 102.162C100.695 98.5053 97.2724 95.3746 93.3816 92.916C85.4261 87.8103 75.3458 84.998 64.9999 84.998C54.654 84.998 44.5737 87.8103 36.6182 92.916C32.7276 95.3735 29.3048 98.5032 26.5098 102.159C26.4 102.306 26.2592 102.427 26.0975 102.513C25.9358 102.599 25.757 102.649 25.5739 102.659C25.3909 102.668 25.2079 102.637 25.0381 102.568C24.8683 102.499 24.7157 102.394 24.5912 102.259C15.4223 92.361 10.2285 79.4276 10.0051 65.9373C9.49577 35.5308 34.4466 10.0801 64.8656 10.0051C95.2846 9.9301 119.995 34.6309 119.995 64.9999C120.005 78.8155 114.795 92.1249 105.409 102.262Z" fill="#C4C4C4"/>
<path d="M65.0023 30.0033C58.8404 30.0033 53.269 32.3125 49.31 36.5089C45.351 40.7054 43.3731 46.508 43.8199 52.7355C44.7261 65 54.2283 74.9991 65.0023 74.9991C75.7763 74.9991 85.2598 65 86.1847 52.7387C86.6471 46.5705 84.6848 40.821 80.6602 36.5464C76.6856 32.3281 71.1236 30.0033 65.0023 30.0033Z" fill="#C4C4C4"/>
</svg>
